<?xml version="1.0" encoding="UTF-8" standalone="no"?>
<svg width="106px" height="109px" viewBox="0 0 106 109" version="1.1" xmlns="http://www.w3.org/2000/svg" xmlns:xlink="http://www.w3.org/1999/xlink" xmlns:sketch="http://www.bohemiancoding.com/sketch/ns">
    <!-- Generator: Sketch 3.4.4 (17249) - http://www.bohemiancoding.com/sketch -->
    <title>icon</title>
    <desc>Created with Sketch.</desc>
    <defs></defs>
    <g id="Page-1" stroke="none" stroke-width="1" fill="none" fill-rule="evenodd" sketch:type="MSPage">
        <g id="index" sketch:type="MSArtboardGroup" transform="translate(-907.000000, -1313.000000)">
            <g id="como-funciona" sketch:type="MSLayerGroup" transform="translate(0.000000, 1030.000000)">
                <g id="steps" transform="translate(510.000000, 237.000000)" sketch:type="MSShapeGroup">
                    <g id="icon" transform="translate(397.000000, 46.000000)">
                        <path d="M79.4473557,103.96759 C79.4473557,108.098289 78.5858389,108.997995 74.5688658,108.99836 C51.1663423,109.001276 27.7641745,108.999818 4.36165101,108.996901 C1.13114094,108.996537 0,107.819774 0,104.493998 C0.00142281879,76.4416271 0.00213422819,48.3892559 0.00355704698,20.3368846 C0.00355704698,16.6979615 0.995261745,15.6772258 4.52385235,15.6750385 C9.61896644,15.6717575 14.7144362,15.6677475 19.8095503,15.6637375 C20.9655906,16.2827408 20.6084631,17.4259649 20.6924094,18.4022258 C20.7596376,19.1863696 20.6454564,19.9712425 20.5668456,20.7535635 C20.6191342,21.6689448 20.4558658,22.4902726 19.6295638,23.0228779 C18.2775302,23.6761488 16.8333691,23.365189 15.4276242,23.4096639 C13.4730268,23.4716371 11.5159396,23.4162258 9.55991946,23.4391923 C8.2455906,23.4545033 7.5864698,24.0826204 7.57757718,25.4380117 C7.57366443,26.0453495 7.55765772,26.6526873 7.55765772,27.2603896 C7.5565906,50.6501856 7.5562349,74.0403462 7.55801342,97.4305067 C7.55836913,101.252069 7.56334899,101.256808 11.3387987,101.257537 C28.5300067,101.259724 45.7212148,101.275764 62.9120671,101.233112 C64.7428792,101.228373 66.5594631,101.80837 68.391698,101.332269 C71.7570201,102.014339 75.0689866,103.009192 78.5228792,103.230109 C78.9365638,103.256356 79.2755503,103.541433 79.4473557,103.96759" id="Fill-1" fill="#0086D8"></path>
                        <path d="M79.4473557,103.96759 C75.749094,103.966861 72.1753289,103.219172 68.6673691,102.0785 C62.3365369,100.888249 58.3931946,96.4210719 54.982698,91.3717107 C52.0097181,86.9705167 50.6591074,81.8978244 50.5491946,76.6147876 C50.4062013,69.739403 52.4575503,63.5129147 56.6370805,58.0297408 C60.0283691,53.5796973 64.4024698,50.6356037 69.4783758,48.6637609 C70.6415302,48.2120853 71.8331409,47.8460786 73.0973154,47.8201957 C74.6513893,47.0808913 76.3545034,47.4239314 77.9697584,47.1155234 C78.514698,47.0116271 78.9799597,47.3805502 79.3296174,47.830403 C80.8314027,48.0294465 82.3474161,48.1504766 83.8321275,48.4395635 C97.0433557,51.0107241 106.323336,62.9522391 105.971544,76.8878344 C105.631134,90.3644632 95.5230738,101.758791 82.2634698,103.60851 C81.3261879,103.739018 80.3860604,103.848383 79.4473557,103.96759" id="Fill-3" fill="#05B8D7"></path>
                        <path d="M19.9634993,20.7742699 C19.9122779,19.0707348 19.8607007,17.3671997 19.8094792,15.6640291 C19.8393584,14.9990926 19.8532309,14.3330625 19.9016067,13.6695843 C20.0314389,11.8851194 21.2461705,10.6321662 22.9891235,10.5851395 C24.879694,10.5344672 26.7731101,10.5446746 28.6643919,10.5818585 C29.4739758,10.5978987 29.7681436,10.3000625 29.8880161,9.45868462 C30.6364188,4.21720635 34.4630899,0.483500669 39.1206872,0.367574247 C44.5483852,0.232326756 48.5112913,3.38457759 49.5702242,8.89764448 C49.8291772,10.2457448 50.2506872,10.7094505 51.5643047,10.5960759 C52.914204,10.4794204 54.2818886,10.5734739 55.6417477,10.578213 C58.5485664,10.5880559 59.6388013,11.7043033 59.729506,14.7526579 C59.7383987,15.054504 59.7718349,15.3556211 59.7942443,15.6571027 C60.9541973,17.3963635 60.7841705,19.1735375 59.9425732,20.9722197 C59.3513919,21.4395709 58.6584792,21.567892 57.9363987,21.5708084 C45.9690698,21.6225742 34.0017409,21.6160124 22.0344121,21.5737247 C21.2522174,21.5711729 20.4824725,21.5070124 19.9634993,20.7742699 Z M36.5890658,7.2402612 C36.5620322,5.254201 37.8251396,3.92651538 39.7427436,3.92542174 C41.5547034,3.92432809 43.0636027,5.42954883 43.0344349,7.20891003 C43.0070456,8.87161572 41.4956564,10.4639635 39.871153,10.5416124 C38.1641262,10.6232712 36.6139651,9.06409732 36.5890658,7.2402612 Z" id="Fill-6" fill="#1B65C2"></path>
                        <path d="M59.6086376,20.7565893 C59.6705302,19.0566997 59.7324228,17.3571746 59.7939597,15.6572849 C65.1131678,15.6634823 70.4323758,15.6572849 75.7512282,15.6820742 C78.1170201,15.6930107 79.4128523,16.8384221 79.4221007,19.1296094 C79.4605168,28.5178268 79.4317047,37.9060441 79.4224564,47.2942615 C79.4221007,47.4725258 79.3616309,47.65079 79.3296174,47.8294187 C77.1847181,48.0361177 75.0401745,48.2417231 72.8952752,48.447693 C71.9626174,47.6854221 72.1436711,46.5943284 72.1386913,45.5889037 C72.107745,39.2297197 72.1362013,32.8705358 72.1201946,26.5113518 C72.1130805,23.6168368 71.9298926,23.4407599 69.086745,23.4225324 C66.7230872,23.407586 64.3590738,23.4389371 61.9954161,23.4046696 C61.1676913,23.3926395 60.3307181,23.3944622 59.6399396,22.7998836 C59.0989128,22.1269271 59.1921074,21.4441278 59.6086376,20.7565893" id="Fill-9" fill="#0086D8"></path>
                        <path d="M59.7341302,22.4724462 C63.4658282,22.4691652 67.198949,22.5329612 70.928157,22.4301585 C72.4274523,22.3886 72.9499826,22.7371084 72.9304188,24.4096569 C72.8382913,32.4213391 72.8927141,40.4348441 72.895204,48.4476201 C65.7704389,50.251406 59.9966403,54.1090582 55.9053248,60.4037171 C46.6121839,74.701309 52.0213852,94.1324729 67.2611973,101.349075 C67.7378416,101.57473 68.1988349,101.834654 68.667298,102.078536 C59.3617074,102.105878 50.0561168,102.145978 40.7508819,102.157279 C29.9623584,102.170403 19.1734792,102.127751 8.38531141,102.193005 C6.95608993,102.201389 6.63915705,101.778513 6.64164698,100.376095 C6.68575436,74.9823759 6.69429128,49.5882923 6.64662685,24.1942087 C6.64378121,22.6689378 7.13607651,22.4210448 8.45609664,22.4476569 C12.2482644,22.5245766 16.0429221,22.4611452 19.8368685,22.4531251 C20.9466671,23.1082187 20.6635262,24.2416 20.6891369,25.2262455 C20.8061638,29.6806635 21.2760497,30.1746268 25.6914121,30.1790013 C35.093043,30.1881151 44.4950295,30.1877505 53.8966604,30.1790013 C58.0790362,30.1753559 58.8544725,29.3788174 58.9860832,25.1270883 C59.0148953,24.1949378 58.7644792,23.1421217 59.7341302,22.4724462" id="Fill-11" fill="#FDFDFD"></path>
                        <path d="M59.7341302,22.4724462 C59.7053181,23.985687 59.6839758,25.4989278 59.6455597,27.011804 C59.579043,29.6267104 58.3312309,30.9416368 55.8057275,30.9452823 C45.101506,30.9613224 34.3969289,30.961687 23.6927074,30.9434595 C21.1469289,30.9390849 19.9538953,29.6514997 19.9058752,26.9935766 C19.8784859,25.4799712 19.8585664,23.9660013 19.836157,22.4527605 C19.8788416,21.8935431 19.9211705,21.3339612 19.9634993,20.7743793 C33.1786403,20.7685465 46.3934255,20.7627137 59.6085664,20.7565164 C59.6505396,21.328493 59.692157,21.9004696 59.7341302,22.4724462" id="Fill-13" fill="#064A9E"></path>
                        <path d="M98.1736785,75.9526946 C98.0712356,87.2168786 89.2803497,95.9835408 78.1926785,95.8792799 C67.7335376,95.7808518 59.0397591,86.5942298 59.1261953,75.7314137 C59.2136987,64.7100191 68.1105846,55.7545207 78.8560678,55.8715408 C89.5407255,55.9878318 98.2725644,65.0647247 98.1736785,75.9526946" id="Fill-15" fill="#FDFDFD"></path>
                        <path d="M19.0521128,43.7036047 C19.8122537,43.6219458 20.4482537,44.0200328 21.0145356,44.6040395 C22.2662604,45.8956348 23.5656497,47.1416615 24.7657973,48.4813773 C25.4565758,49.2523973 25.888757,49.1991732 26.5866497,48.4638789 C29.3522537,45.5493137 32.1761933,42.6927117 34.9901732,39.8266314 C36.4378913,38.3520328 37.8877436,38.187986 39.0057235,39.334491 C40.1784819,40.5371365 40.0386899,41.875394 38.520898,43.439307 C34.9716765,47.0964575 31.4156966,50.7470462 27.842643,54.3797719 C26.324851,55.9232702 25.0784617,55.9316548 23.556757,54.4045612 C21.4840658,52.3240829 19.4490792,50.2042334 17.4012872,48.0978722 C16.5525758,47.2247786 16.3736564,46.1748789 16.8549248,45.0874308 C17.2440658,44.2088689 17.966502,43.6846482 19.0521128,43.7036047" id="Fill-19" fill="#05B8D7"></path>
                        <path d="M39.7730852,68.1325826 C39.7104812,69.1062916 39.3188503,69.7533652 38.7539913,70.3304455 C35.0688906,74.0955023 31.4061993,77.8831612 27.7061591,81.6325425 C26.2573738,83.1005793 25.0753671,83.0746963 23.5742933,81.5727565 C21.5435752,79.5411278 19.5395349,77.4810642 17.5575483,75.3994923 C16.3410383,74.1217498 16.2787899,72.5975726 17.3181591,71.5389237 C18.3952329,70.4416328 19.7344611,70.5196462 21.0655081,71.8218134 C22.2628101,72.9931077 23.4675819,74.1647666 24.5677765,75.4290207 C25.3613537,76.340392 25.8693,76.4377264 26.7660315,75.4767766 C29.5849913,72.4553987 32.5092396,69.537188 35.4025416,66.5890843 C36.2249309,65.7513518 37.1767966,65.4024789 38.299045,65.9558635 C39.2452195,66.4221211 39.6485886,67.2532916 39.7730852,68.1325826" id="Fill-21" fill="#05B8D7"></path>
                        <path d="M73.3575846,73.90601 C73.3575846,71.4194247 73.3412221,68.9328395 73.3622087,66.4466187 C73.3821282,64.1065819 74.7117523,62.5255351 76.6435846,62.4872575 C78.6465577,62.4475217 80.0277591,64.0683043 80.036296,66.5038528 C80.0459,69.3542575 80.0942758,72.2064849 80.0035711,75.0539732 C79.9644436,76.277398 80.3557188,76.6091371 81.4968195,76.5449766 C83.1487121,76.4520167 84.8105644,76.4793579 86.4656584,76.5351338 C88.4202557,76.6007525 89.7242691,77.9634348 89.7349403,79.8452341 C89.7459671,81.7518227 88.5095376,83.1921538 86.5385779,83.2340769 C82.5166248,83.3190167 78.4914705,83.2399097 74.4680946,83.2851137 C73.4233899,83.2967793 73.3476248,82.7357391 73.3554503,81.9111304 C73.3803497,79.243 73.3646987,76.574505 73.3646987,73.90601 L73.3575846,73.90601 Z" id="Fill-23" fill="#3E3E3F"></path>
                    </g>
                </g>
            </g>
        </g>
    </g>
</svg>